<svg width="206" height="50" viewBox="0 0 206 50" fill="none" xmlns="http://www.w3.org/2000/svg">
<path d="M24.4222 3.23182L7.54874 10.0335L1.032e-05 44.28C6.78464 38.0098 16.9576 37.0968 16.9576 37.0968L24.4222 3.23182Z" fill="black"/>
<path d="M13.5794 45.0012C13.5794 45.0012 18.3244 43.7852 23.8427 45.9362L31.2593 12.2892L29.8617 11.9811L22.8168 43.9415C22.8168 43.9418 16.6792 42.5091 13.5792 45.0013L13.5794 45.0012Z" fill="black"/>
<path d="M8.05006 42.6332C10.9829 39.9504 18.5553 39.0296 18.5553 39.0296L25.5157 7.45061L28.6871 6.9523L21.1108 41.3235C21.1108 41.3235 18.028 41.0321 16.4354 41.1245C10.9353 41.4465 8.05005 42.6329 8.05005 42.6329L8.05006 42.6332Z" fill="black"/>
<path d="M48.076 32.28C47.1427 32.28 46.3307 32.1587 45.64 31.916C44.968 31.6733 44.408 31.3373 43.96 30.908C43.5307 30.4787 43.204 29.9747 42.98 29.396C42.7747 28.7987 42.672 28.1453 42.672 27.436C42.672 27.156 42.6813 26.876 42.7 26.596C42.7373 26.2973 42.7933 25.9987 42.868 25.7H45.892C45.8173 25.9987 45.7613 26.288 45.724 26.568C45.6867 26.8293 45.668 27.0813 45.668 27.324C45.668 27.828 45.7427 28.2667 45.892 28.64C46.06 29.0133 46.312 29.312 46.648 29.536C46.984 29.7413 47.4227 29.844 47.964 29.844C48.5987 29.844 49.1027 29.7507 49.476 29.564C49.8493 29.3587 50.1107 29.0973 50.26 28.78C50.4093 28.4627 50.484 28.108 50.484 27.716C50.484 27.324 50.4 26.988 50.232 26.708C50.064 26.428 49.8307 26.176 49.532 25.952C49.2333 25.7093 48.8787 25.4853 48.468 25.28C48.0573 25.056 47.6187 24.8133 47.152 24.552C46.5733 24.2533 46.0133 23.9173 45.472 23.544C44.9493 23.1707 44.4733 22.732 44.044 22.228C43.6147 21.7053 43.2693 21.0987 43.008 20.408C42.7467 19.7173 42.616 18.9053 42.616 17.972C42.616 16.8893 42.8213 15.9187 43.232 15.06C43.6427 14.2013 44.268 13.52 45.108 13.016C45.948 12.512 47.012 12.26 48.3 12.26C49.6627 12.26 50.736 12.512 51.52 13.016C52.3227 13.52 52.892 14.2013 53.228 15.06C53.5827 15.9187 53.76 16.8987 53.76 18C53.76 18.3173 53.7413 18.644 53.704 18.98C53.6853 19.2973 53.6573 19.624 53.62 19.96C53.5827 20.2773 53.536 20.604 53.48 20.94H50.26C50.3347 20.436 50.3907 19.9413 50.428 19.456C50.4653 18.9707 50.484 18.5133 50.484 18.084C50.484 17.4307 50.4187 16.8613 50.288 16.376C50.1573 15.872 49.924 15.48 49.588 15.2C49.2707 14.92 48.804 14.78 48.188 14.78C47.7587 14.78 47.3947 14.864 47.096 15.032C46.7973 15.1813 46.5453 15.396 46.34 15.676C46.1533 15.956 46.0133 16.2827 45.92 16.656C45.8453 17.0293 45.808 17.4307 45.808 17.86C45.808 18.5693 45.9293 19.1667 46.172 19.652C46.4147 20.1187 46.76 20.5293 47.208 20.884C47.6747 21.2387 48.188 21.5653 48.748 21.864C49.364 22.1813 49.9613 22.508 50.54 22.844C51.1187 23.18 51.6507 23.5627 52.136 23.992C52.6213 24.4027 53.004 24.8973 53.284 25.476C53.564 26.036 53.704 26.7267 53.704 27.548C53.704 28.4067 53.4987 29.2 53.088 29.928C52.696 30.6373 52.0893 31.2067 51.268 31.636C50.4467 32.0653 49.3827 32.28 48.076 32.28ZM62.816 32.616C62.816 32.28 62.8254 31.832 62.844 31.272C62.8627 30.712 62.872 30.0867 62.872 29.396C62.8907 28.7053 62.9094 27.9867 62.928 27.24C62.9654 26.4747 62.984 25.728 62.984 25C63.0027 24.272 63.012 23.5907 63.012 22.956C63.0307 22.3213 63.04 21.78 63.04 21.332C63.04 20.7907 63.0307 20.1933 63.012 19.54C63.012 18.868 63.0027 18.1773 62.984 17.468C62.984 16.7587 62.984 16.0867 62.984 15.452C62.984 14.7987 62.9747 14.22 62.956 13.716C62.956 13.212 62.9467 12.82 62.928 12.54L66.484 12.176C66.4654 12.5493 66.4374 13.0347 66.4 13.632C66.3814 14.2293 66.3627 14.9293 66.344 15.732C66.3254 16.516 66.3067 17.3747 66.288 18.308C66.2694 19.2413 66.26 20.2307 66.26 21.276C66.26 22.1347 66.26 23.012 66.26 23.908C66.26 24.804 66.2694 25.6813 66.288 26.54C66.3067 27.38 66.316 28.1733 66.316 28.92C66.3347 29.6667 66.344 30.3293 66.344 30.908C66.3627 31.4867 66.372 31.9347 66.372 32.252L62.816 32.616ZM57.524 26.26V23.46L65.084 23.628V26.12L57.524 26.26ZM55.984 32.224C56.0027 31.8133 56.0214 31.244 56.04 30.516C56.0587 29.788 56.068 28.9667 56.068 28.052C56.0867 27.1187 56.096 26.148 56.096 25.14C56.1147 24.1133 56.124 23.1053 56.124 22.116C56.124 21.108 56.1054 20.0627 56.068 18.98C56.0494 17.8973 56.0307 16.8707 56.012 15.9C55.9934 14.9107 55.9654 14.0613 55.928 13.352C55.9094 12.624 55.9 12.1013 55.9 11.784L59.428 11.308C59.428 11.5693 59.4187 12.0173 59.4 12.652C59.4 13.2867 59.3907 14.024 59.372 14.864C59.372 15.704 59.3627 16.5813 59.344 17.496C59.344 18.4107 59.3347 19.2787 59.316 20.1C59.316 20.9027 59.316 21.584 59.316 22.144C59.316 22.6293 59.316 23.236 59.316 23.964C59.3347 24.6733 59.344 25.4387 59.344 26.26C59.3627 27.0813 59.372 27.8747 59.372 28.64C59.3907 29.3867 59.4 30.0587 59.4 30.656C59.4187 31.2347 59.428 31.6547 59.428 31.916L55.984 32.224ZM71.6426 25.84L71.5866 23.236C72.4079 23.292 73.1266 23.2547 73.7426 23.124C74.3586 22.9747 74.8719 22.7227 75.2826 22.368C75.6933 22.0133 76.0013 21.5467 76.2066 20.968C76.4119 20.3707 76.5146 19.6613 76.5146 18.84C76.5146 17.7013 76.4119 16.824 76.2066 16.208C76.0199 15.5733 75.6933 15.1253 75.2266 14.864C74.7786 14.6027 74.1813 14.472 73.4346 14.472C73.0799 14.472 72.6693 14.4907 72.2026 14.528C71.7546 14.5653 71.2693 14.6213 70.7466 14.696L69.4586 12.092C69.8506 12.0547 70.2426 12.0267 70.6346 12.008C71.0266 11.9893 71.4093 11.98 71.7826 11.98C72.1559 11.9613 72.5013 11.952 72.8186 11.952C74.3866 11.952 75.6746 12.1387 76.6826 12.512C77.7093 12.8667 78.4653 13.5293 78.9506 14.5C79.4546 15.4707 79.7066 16.8893 79.7066 18.756C79.7066 20.492 79.3706 21.8827 78.6986 22.928C78.0453 23.9547 77.1119 24.7013 75.8986 25.168C74.6853 25.616 73.2666 25.84 71.6426 25.84ZM69.5146 32.14C69.5333 31.3933 69.5519 30.46 69.5706 29.34C69.5893 28.2013 69.5986 26.9973 69.5986 25.728C69.6173 24.4587 69.6266 23.2453 69.6266 22.088C69.6266 20.912 69.6173 19.6987 69.5986 18.448C69.5799 17.1973 69.5613 16.012 69.5426 14.892C69.5239 13.7533 69.4959 12.82 69.4586 12.092L72.8746 12.344C72.8559 12.7733 72.8373 13.296 72.8186 13.912C72.7999 14.5093 72.7813 15.1533 72.7626 15.844C72.7626 16.5347 72.7626 17.244 72.7626 17.972C72.7626 18.7 72.7626 19.4187 72.7626 20.128C72.7626 20.8187 72.7626 21.4533 72.7626 22.032C72.7626 22.6107 72.7626 23.32 72.7626 24.16C72.7813 24.9813 72.7906 25.8587 72.7906 26.792C72.8093 27.7067 72.8186 28.612 72.8186 29.508C72.8373 30.404 72.8559 31.216 72.8746 31.944L69.5146 32.14ZM77.1306 32.168C76.6639 30.88 76.1599 29.6013 75.6186 28.332C75.0959 27.0627 74.5266 25.7373 73.9106 24.356L76.9626 23.516C77.5226 24.8787 78.1199 26.2693 78.7546 27.688C79.3893 29.1067 80.1266 30.572 80.9666 32.084L77.1306 32.168ZM82.2314 32.084C82.2314 32.084 82.2314 31.888 82.2314 31.496C82.2501 31.0853 82.2594 30.544 82.2594 29.872C82.2781 29.1813 82.2874 28.3973 82.2874 27.52C82.3061 26.6427 82.3154 25.7187 82.3154 24.748C82.3341 23.7773 82.3434 22.816 82.3434 21.864C82.3434 20.6693 82.3341 19.512 82.3154 18.392C82.2967 17.2533 82.2687 16.236 82.2314 15.34C82.2127 14.4253 82.1941 13.7067 82.1754 13.184C82.1754 12.6427 82.1754 12.372 82.1754 12.372L85.5634 12.708C85.5634 12.708 85.5541 12.9227 85.5354 13.352C85.5354 13.7627 85.5354 14.3133 85.5354 15.004C85.5354 15.676 85.5261 16.4227 85.5074 17.244C85.5074 18.0653 85.4981 18.8773 85.4794 19.68C85.4794 20.4827 85.4794 21.2107 85.4794 21.864C85.4794 22.5173 85.4794 23.2827 85.4794 24.16C85.4981 25.0373 85.5074 25.924 85.5074 26.82C85.5074 27.716 85.5074 28.5467 85.5074 29.312C85.5261 30.0773 85.5354 30.7027 85.5354 31.188C85.5541 31.6547 85.5634 31.888 85.5634 31.888L82.2314 32.084ZM82.2314 32.084L83.8834 29.592L91.2194 29.732L91.2474 32L82.2314 32.084ZM83.7434 26.708V23.992L91.1634 24.076L91.1074 26.596L83.7434 26.708ZM83.5194 15.06L82.1754 12.372L90.9114 12.596V15.032L83.5194 15.06ZM93.7991 32.084C93.7991 32.084 93.7991 31.888 93.7991 31.496C93.8178 31.0853 93.8271 30.544 93.8271 29.872C93.8458 29.1813 93.8551 28.3973 93.8551 27.52C93.8738 26.6427 93.8831 25.7187 93.8831 24.748C93.9018 23.7773 93.9111 22.816 93.9111 21.864C93.9111 20.6693 93.9018 19.512 93.8831 18.392C93.8645 17.2533 93.8458 16.236 93.8271 15.34C93.8085 14.4253 93.7898 13.7067 93.7711 13.184C93.7525 12.6427 93.7431 12.372 93.7431 12.372L97.1311 12.708C97.1311 12.708 97.1218 12.9227 97.1031 13.352C97.1031 13.7627 97.1031 14.3133 97.1031 15.004C97.1031 15.676 97.0938 16.4227 97.0751 17.244C97.0751 18.0653 97.0658 18.8773 97.0471 19.68C97.0471 20.4827 97.0471 21.2107 97.0471 21.864C97.0471 22.5173 97.0471 23.2827 97.0471 24.16C97.0658 25.0373 97.0751 25.924 97.0751 26.82C97.0751 27.716 97.0751 28.5467 97.0751 29.312C97.0938 30.0773 97.1031 30.7027 97.1031 31.188C97.1218 31.6547 97.1311 31.888 97.1311 31.888L93.7991 32.084ZM93.7991 32.084L95.4511 29.648L102.843 29.732V32L93.7991 32.084ZM95.3111 25.476V22.76L102.703 22.844L102.367 25.364L95.3111 25.476ZM95.0871 15.004L93.7431 12.372L102.479 12.596L102.731 15.032L95.0871 15.004ZM113.147 26.12L113.035 24.272C114.006 24.272 114.827 24.1973 115.499 24.048C116.171 23.8987 116.712 23.6373 117.123 23.264C117.534 22.872 117.832 22.3307 118.019 21.64C118.206 20.9493 118.299 20.0533 118.299 18.952C118.299 17.8133 118.196 16.9173 117.991 16.264C117.786 15.592 117.44 15.1067 116.955 14.808C116.488 14.5093 115.854 14.36 115.051 14.36C114.678 14.36 114.258 14.388 113.791 14.444C113.324 14.4813 112.82 14.5467 112.279 14.64L110.991 12.036C111.644 11.98 112.288 11.9427 112.923 11.924C113.558 11.8867 114.127 11.868 114.631 11.868C116.274 11.868 117.599 12.064 118.607 12.456C119.615 12.848 120.352 13.5573 120.819 14.584C121.286 15.592 121.519 17.02 121.519 18.868C121.519 20.1933 121.304 21.3227 120.875 22.256C120.464 23.1707 119.886 23.9173 119.139 24.496C118.392 25.056 117.506 25.4667 116.479 25.728C115.452 25.9893 114.342 26.12 113.147 26.12ZM114.715 32.28C114.36 32.28 113.978 32.2707 113.567 32.252C113.156 32.252 112.736 32.2333 112.307 32.196C111.878 32.1773 111.448 32.1587 111.019 32.14L112.503 29.676C113.082 29.732 113.642 29.788 114.183 29.844C114.724 29.8813 115.228 29.9 115.695 29.9C116.199 29.9 116.656 29.8627 117.067 29.788C117.496 29.7133 117.842 29.564 118.103 29.34C118.364 29.0973 118.495 28.7333 118.495 28.248C118.495 27.8373 118.383 27.52 118.159 27.296C117.935 27.0533 117.599 26.8853 117.151 26.792C116.722 26.6987 116.162 26.652 115.471 26.652C115.284 26.652 115.051 26.6613 114.771 26.68C114.491 26.68 114.211 26.68 113.931 26.68C113.651 26.68 113.39 26.6893 113.147 26.708L113.035 24.272C115.219 24.2533 116.936 24.412 118.187 24.748C119.456 25.084 120.362 25.56 120.903 26.176C121.444 26.792 121.715 27.5293 121.715 28.388C121.715 29.4147 121.435 30.2173 120.875 30.796C120.315 31.356 119.512 31.748 118.467 31.972C117.422 32.1773 116.171 32.28 114.715 32.28ZM111.019 32.14C111.019 32.14 111.019 31.86 111.019 31.3C111.038 30.7213 111.056 29.956 111.075 29.004C111.094 28.052 111.103 26.9973 111.103 25.84C111.122 24.664 111.131 23.488 111.131 22.312C111.131 21.1173 111.122 19.9227 111.103 18.728C111.103 17.5147 111.084 16.404 111.047 15.396C111.028 14.3693 111.01 13.5573 110.991 12.96C110.991 12.344 110.991 12.036 110.991 12.036L114.379 12.288C114.379 12.288 114.37 12.5307 114.351 13.016C114.351 13.4827 114.342 14.108 114.323 14.892C114.323 15.6573 114.314 16.4973 114.295 17.412C114.276 18.308 114.258 19.1853 114.239 20.044C114.239 20.9027 114.239 21.6587 114.239 22.312C114.239 22.9653 114.239 23.712 114.239 24.552C114.258 25.392 114.267 26.2413 114.267 27.1C114.286 27.9587 114.295 28.752 114.295 29.48C114.314 30.208 114.323 30.796 114.323 31.244C114.342 31.692 114.351 31.916 114.351 31.916L111.019 32.14ZM123.793 12.372L127.293 12.316C127.293 12.316 127.283 12.5027 127.265 12.876C127.265 13.2307 127.246 13.716 127.209 14.332C127.19 14.9293 127.171 15.6293 127.153 16.432C127.134 17.2347 127.115 18.084 127.097 18.98C127.078 19.8573 127.069 20.7347 127.069 21.612C127.069 22.508 127.069 23.4413 127.069 24.412C127.087 25.364 127.097 26.288 127.097 27.184C127.115 28.08 127.125 28.892 127.125 29.62C127.143 30.348 127.153 30.9267 127.153 31.356C127.171 31.7853 127.181 32 127.181 32H123.681C123.681 32 123.69 31.7573 123.709 31.272C123.727 30.7867 123.737 30.1613 123.737 29.396C123.755 28.612 123.774 27.7627 123.793 26.848C123.811 25.9333 123.83 25.028 123.849 24.132C123.867 23.2173 123.877 22.396 123.877 21.668C123.877 20.9027 123.867 20.0813 123.849 19.204C123.849 18.308 123.849 17.4213 123.849 16.544C123.849 15.6667 123.839 14.864 123.821 14.136C123.821 13.3893 123.811 12.8013 123.793 12.372ZM132.236 26.568L132.18 23.964C133.002 24.02 133.711 23.9547 134.308 23.768C134.924 23.5813 135.438 23.2827 135.848 22.872C136.259 22.4613 136.567 21.9387 136.772 21.304C136.996 20.6693 137.108 19.9413 137.108 19.12C137.108 17.9813 137.006 17.076 136.8 16.404C136.614 15.732 136.296 15.2467 135.848 14.948C135.419 14.6307 134.831 14.472 134.084 14.472C133.73 14.472 133.31 14.4907 132.824 14.528C132.339 14.5653 131.844 14.6213 131.34 14.696L130.052 12.092C130.444 12.0547 130.836 12.0267 131.228 12.008C131.62 11.9893 132.003 11.98 132.376 11.98C132.75 11.9613 133.095 11.952 133.412 11.952C134.98 11.952 136.268 12.1573 137.276 12.568C138.284 12.96 139.04 13.6693 139.544 14.696C140.048 15.7227 140.3 17.1693 140.3 19.036C140.3 20.3427 140.104 21.472 139.712 22.424C139.339 23.376 138.798 24.16 138.088 24.776C137.379 25.3733 136.53 25.8213 135.54 26.12C134.551 26.4187 133.45 26.568 132.236 26.568ZM130.108 32.14C130.127 31.3933 130.146 30.46 130.164 29.34C130.183 28.2013 130.192 26.9973 130.192 25.728C130.211 24.4587 130.22 23.2453 130.22 22.088C130.22 20.912 130.211 19.6987 130.192 18.448C130.174 17.1973 130.155 16.012 130.136 14.892C130.118 13.7533 130.09 12.82 130.052 12.092L133.44 12.344C133.422 12.8293 133.403 13.38 133.384 13.996C133.384 14.612 133.375 15.2653 133.356 15.956C133.338 16.6467 133.328 17.3467 133.328 18.056C133.347 18.7653 133.347 19.4653 133.328 20.156C133.328 20.828 133.338 21.4533 133.356 22.032C133.356 22.6107 133.356 23.32 133.356 24.16C133.375 24.9813 133.384 25.8587 133.384 26.792C133.403 27.7067 133.412 28.612 133.412 29.508C133.431 30.404 133.44 31.216 133.44 31.944L130.108 32.14ZM137.92 32.168C137.603 31.3093 137.258 30.46 136.884 29.62C136.53 28.7613 136.156 27.9027 135.764 27.044C135.372 26.1667 134.952 25.2707 134.504 24.356L137.528 23.516C137.939 24.4307 138.359 25.3547 138.788 26.288C139.218 27.2213 139.675 28.1733 140.16 29.144C140.646 30.096 141.178 31.076 141.756 32.084L137.92 32.168ZM142.881 32.084C142.881 32.084 142.881 31.888 142.881 31.496C142.9 31.0853 142.909 30.544 142.909 29.872C142.928 29.1813 142.937 28.3973 142.937 27.52C142.956 26.6427 142.965 25.7187 142.965 24.748C142.984 23.7773 142.993 22.816 142.993 21.864C142.993 20.6693 142.984 19.512 142.965 18.392C142.946 17.2533 142.928 16.236 142.909 15.34C142.89 14.4253 142.872 13.7067 142.853 13.184C142.834 12.6427 142.825 12.372 142.825 12.372L146.213 12.708C146.213 12.708 146.204 12.9227 146.185 13.352C146.185 13.7627 146.185 14.3133 146.185 15.004C146.185 15.676 146.176 16.4227 146.157 17.244C146.157 18.0653 146.148 18.8773 146.129 19.68C146.129 20.4827 146.129 21.2107 146.129 21.864C146.129 22.5173 146.129 23.2827 146.129 24.16C146.148 25.0373 146.157 25.924 146.157 26.82C146.157 27.716 146.157 28.5467 146.157 29.312C146.176 30.0773 146.185 30.7027 146.185 31.188C146.204 31.6547 146.213 31.888 146.213 31.888L142.881 32.084ZM142.881 32.084L144.533 29.648L151.925 29.732V32L142.881 32.084ZM144.393 25.476V22.76L151.785 22.844L151.449 25.364L144.393 25.476ZM144.169 15.004L142.825 12.372L151.561 12.596L151.813 15.032L144.169 15.004ZM154.337 12.288H158.005C158.098 12.6427 158.238 13.1187 158.425 13.716C158.612 14.2947 158.817 14.948 159.041 15.676C159.265 16.404 159.508 17.1693 159.769 17.972C160.03 18.7747 160.282 19.5587 160.525 20.324C160.749 21.052 160.964 21.752 161.169 22.424C161.393 23.096 161.589 23.7027 161.757 24.244C161.944 24.7667 162.093 25.196 162.205 25.532C162.205 25.1213 162.205 24.6733 162.205 24.188C162.205 23.7027 162.196 23.1987 162.177 22.676C162.177 22.1347 162.168 21.584 162.149 21.024C162.149 20.464 162.149 19.8947 162.149 19.316C162.13 18.812 162.112 18.2987 162.093 17.776C162.093 17.2533 162.093 16.74 162.093 16.236C162.093 15.7133 162.084 15.2093 162.065 14.724C162.065 14.22 162.065 13.744 162.065 13.296C162.065 12.8293 162.056 12.3907 162.037 11.98H165.173C165.154 12.5213 165.136 13.128 165.117 13.8C165.117 14.472 165.108 15.1907 165.089 15.956C165.089 16.7027 165.08 17.496 165.061 18.336C165.061 19.1573 165.052 20.0067 165.033 20.884C165.014 21.836 165.005 22.7973 165.005 23.768C165.005 24.72 165.005 25.6627 165.005 26.596C165.005 27.5293 165.005 28.4253 165.005 29.284C165.005 30.1427 165.005 30.936 165.005 31.664L161.477 31.86C161.328 31.3933 161.15 30.852 160.945 30.236C160.758 29.62 160.544 28.9573 160.301 28.248C160.077 27.5387 159.844 26.82 159.601 26.092C159.358 25.364 159.125 24.6547 158.901 23.964C158.752 23.4973 158.602 23.0587 158.453 22.648C158.304 22.2187 158.164 21.8173 158.033 21.444C157.921 21.052 157.809 20.6973 157.697 20.38C157.585 20.044 157.482 19.7453 157.389 19.484C157.389 19.876 157.389 20.296 157.389 20.744C157.389 21.1733 157.389 21.612 157.389 22.06C157.389 22.508 157.389 22.9653 157.389 23.432C157.389 23.88 157.389 24.3467 157.389 24.832C157.408 25.336 157.417 25.8493 157.417 26.372C157.417 26.876 157.417 27.38 157.417 27.884C157.436 28.3693 157.445 28.8547 157.445 29.34C157.445 29.8067 157.445 30.264 157.445 30.712C157.464 31.16 157.473 31.5893 157.473 32L154.421 31.972C154.421 31.4307 154.421 30.852 154.421 30.236C154.44 29.6013 154.449 28.9387 154.449 28.248C154.468 27.5573 154.477 26.8387 154.477 26.092C154.477 25.3453 154.477 24.5987 154.477 23.852C154.477 22.788 154.477 21.7333 154.477 20.688C154.477 19.624 154.468 18.588 154.449 17.58C154.43 16.572 154.412 15.62 154.393 14.724C154.393 13.828 154.374 13.016 154.337 12.288ZM171.447 32.308C171.148 32.308 170.812 32.2987 170.439 32.28C170.066 32.28 169.683 32.2613 169.291 32.224C168.899 32.1867 168.526 32.1587 168.171 32.14L169.655 29.592C170.066 29.6667 170.542 29.7227 171.083 29.76C171.624 29.7973 172.054 29.816 172.371 29.816C172.987 29.816 173.491 29.7133 173.883 29.508C174.294 29.3027 174.611 28.9947 174.835 28.584C175.078 28.1733 175.246 27.6507 175.339 27.016C175.451 26.3813 175.516 25.644 175.535 24.804C175.572 23.964 175.591 23.012 175.591 21.948C175.591 20.7347 175.563 19.6707 175.507 18.756C175.47 17.8413 175.348 17.0853 175.143 16.488C174.956 15.872 174.648 15.4147 174.219 15.116C173.79 14.7987 173.183 14.64 172.399 14.64C172.063 14.64 171.634 14.668 171.111 14.724C170.588 14.78 170.066 14.864 169.543 14.976L168.087 12.456C168.778 12.3627 169.478 12.2973 170.187 12.26C170.915 12.204 171.55 12.176 172.091 12.176C173.472 12.176 174.611 12.3533 175.507 12.708C176.403 13.044 177.094 13.604 177.579 14.388C178.064 15.1533 178.4 16.1613 178.587 17.412C178.792 18.6627 178.895 20.1933 178.895 22.004C178.895 23.4973 178.839 24.8133 178.727 25.952C178.615 27.0907 178.41 28.0613 178.111 28.864C177.831 29.6667 177.411 30.32 176.851 30.824C176.31 31.328 175.591 31.7013 174.695 31.944C173.818 32.1867 172.735 32.308 171.447 32.308ZM168.171 32.14C168.19 31.3747 168.208 30.4227 168.227 29.284C168.246 28.1453 168.255 26.9413 168.255 25.672C168.274 24.4027 168.283 23.1987 168.283 22.06C168.283 20.9773 168.274 19.8387 168.255 18.644C168.236 17.4493 168.208 16.3107 168.171 15.228C168.152 14.1267 168.124 13.2027 168.087 12.456L171.475 12.652C171.456 13.1933 171.438 13.772 171.419 14.388C171.419 15.004 171.419 15.648 171.419 16.32C171.419 16.9733 171.41 17.636 171.391 18.308C171.391 18.9613 171.391 19.6147 171.391 20.268C171.391 20.9027 171.391 21.5093 171.391 22.088C171.391 22.5547 171.391 23.1053 171.391 23.74C171.391 24.3747 171.391 25.056 171.391 25.784C171.41 26.512 171.419 27.2493 171.419 27.996C171.438 28.7427 171.447 29.4707 171.447 30.18C171.466 30.8707 171.475 31.5147 171.475 32.112L168.171 32.14ZM183.314 25.84L183.258 23.236C184.08 23.292 184.798 23.2547 185.414 23.124C186.03 22.9747 186.544 22.7227 186.954 22.368C187.365 22.0133 187.673 21.5467 187.878 20.968C188.084 20.3707 188.186 19.6613 188.186 18.84C188.186 17.7013 188.084 16.824 187.878 16.208C187.692 15.5733 187.365 15.1253 186.898 14.864C186.45 14.6027 185.853 14.472 185.106 14.472C184.752 14.472 184.341 14.4907 183.874 14.528C183.426 14.5653 182.941 14.6213 182.418 14.696L181.13 12.092C181.522 12.0547 181.914 12.0267 182.306 12.008C182.698 11.9893 183.081 11.98 183.454 11.98C183.828 11.9613 184.173 11.952 184.49 11.952C186.058 11.952 187.346 12.1387 188.354 12.512C189.381 12.8667 190.137 13.5293 190.622 14.5C191.126 15.4707 191.378 16.8893 191.378 18.756C191.378 20.492 191.042 21.8827 190.37 22.928C189.717 23.9547 188.784 24.7013 187.57 25.168C186.357 25.616 184.938 25.84 183.314 25.84ZM181.186 32.14C181.205 31.3933 181.224 30.46 181.242 29.34C181.261 28.2013 181.27 26.9973 181.27 25.728C181.289 24.4587 181.298 23.2453 181.298 22.088C181.298 20.912 181.289 19.6987 181.27 18.448C181.252 17.1973 181.233 16.012 181.214 14.892C181.196 13.7533 181.168 12.82 181.13 12.092L184.546 12.344C184.528 12.7733 184.509 13.296 184.49 13.912C184.472 14.5093 184.453 15.1533 184.434 15.844C184.434 16.5347 184.434 17.244 184.434 17.972C184.434 18.7 184.434 19.4187 184.434 20.128C184.434 20.8187 184.434 21.4533 184.434 22.032C184.434 22.6107 184.434 23.32 184.434 24.16C184.453 24.9813 184.462 25.8587 184.462 26.792C184.481 27.7067 184.49 28.612 184.49 29.508C184.509 30.404 184.528 31.216 184.546 31.944L181.186 32.14ZM188.802 32.168C188.336 30.88 187.832 29.6013 187.29 28.332C186.768 27.0627 186.198 25.7373 185.582 24.356L188.634 23.516C189.194 24.8787 189.792 26.2693 190.426 27.688C191.061 29.1067 191.798 30.572 192.638 32.084L188.802 32.168ZM201.267 32.14C201.118 31.132 200.959 30.0773 200.791 28.976C200.642 27.8747 200.483 26.764 200.315 25.644C200.147 24.524 199.97 23.4133 199.783 22.312C199.634 21.528 199.494 20.7627 199.363 20.016C199.251 19.2507 199.139 18.5227 199.027 17.832C198.934 17.1413 198.831 16.4787 198.719 15.844C198.626 15.2093 198.533 14.6213 198.439 14.08L196.563 12.428L200.931 12.26C201.062 12.988 201.193 13.744 201.323 14.528C201.454 15.2933 201.585 16.0867 201.715 16.908C201.865 17.7107 202.014 18.532 202.163 19.372C202.331 20.212 202.49 21.0427 202.639 21.864C202.882 23.1147 203.125 24.3467 203.367 25.56C203.61 26.7547 203.843 27.9027 204.067 29.004C204.31 30.0867 204.534 31.0853 204.739 32L201.267 32.14ZM195.555 28.276V25.532L201.715 25.644V28.08L195.555 28.276ZM196.059 31.832L192.755 31.804C192.942 30.9267 193.147 29.9653 193.371 28.92C193.595 27.8747 193.819 26.7733 194.043 25.616C194.286 24.44 194.519 23.2453 194.743 22.032C194.967 20.912 195.182 19.8013 195.387 18.7C195.611 17.5987 195.817 16.516 196.003 15.452C196.209 14.388 196.395 13.38 196.563 12.428L200.931 12.26L198.943 14.304C198.813 14.976 198.673 15.732 198.523 16.572C198.374 17.412 198.225 18.308 198.075 19.26C197.926 20.1933 197.767 21.1733 197.599 22.2C197.394 23.2827 197.207 24.384 197.039 25.504C196.871 26.6053 196.703 27.688 196.535 28.752C196.386 29.816 196.227 30.8427 196.059 31.832ZM44.1055 45.0859C43.8405 45.0859 43.5612 45.0573 43.2676 45C42.9811 44.9499 42.7161 44.8747 42.4727 44.7744L42.709 44.0332C42.9382 44.1191 43.153 44.1872 43.3535 44.2373C43.5612 44.2803 43.7832 44.3018 44.0195 44.3018C44.4564 44.3018 44.7643 44.223 44.9434 44.0654C45.1296 43.9007 45.2227 43.6859 45.2227 43.4209C45.2227 43.2132 45.1761 43.0378 45.083 42.8945C44.9899 42.7513 44.8717 42.6367 44.7285 42.5508C44.5924 42.4577 44.3991 42.3538 44.1484 42.2393C43.8118 42.0817 43.5397 41.9313 43.332 41.7881C43.1315 41.6377 42.9561 41.4264 42.8057 41.1543C42.6553 40.875 42.5801 40.5169 42.5801 40.0801C42.5801 39.4499 42.7663 38.9521 43.1387 38.5869C43.5182 38.2217 44.0589 38.0391 44.7607 38.0391C44.9971 38.0391 45.2334 38.057 45.4697 38.0928C45.7061 38.1286 45.9209 38.1823 46.1143 38.2539L45.9209 39.0059C45.5342 38.8841 45.1725 38.8232 44.8359 38.8232C44.3633 38.8232 44.041 38.9271 43.8691 39.1348C43.6973 39.3424 43.6113 39.6361 43.6113 40.0156C43.6113 40.2806 43.665 40.5026 43.7725 40.6816C43.8799 40.8607 44.0124 41.0039 44.1699 41.1113C44.3346 41.2116 44.5531 41.3298 44.8252 41.4658C45.1331 41.6162 45.3802 41.7594 45.5664 41.8955C45.7598 42.0244 45.9209 42.207 46.0498 42.4434C46.1859 42.6725 46.2539 42.9697 46.2539 43.335C46.2539 43.9294 46.0677 44.3698 45.6953 44.6562C45.3301 44.9427 44.8001 45.0859 44.1055 45.0859ZM49.9492 41.9385C49.9492 41.5661 49.8812 41.3083 49.7451 41.165C49.609 41.0218 49.3691 40.9502 49.0254 40.9502C48.8177 40.9502 48.6029 40.9753 48.3809 41.0254C48.166 41.0684 47.944 41.1292 47.7148 41.208L47.5107 40.4775C48.0837 40.2484 48.6423 40.1338 49.1865 40.1338C49.7594 40.1338 50.1927 40.2663 50.4863 40.5312C50.7871 40.7962 50.9375 41.2152 50.9375 41.7881V44.3125L50.9697 45H50.0996L49.9492 44.2051V41.9385ZM50.4648 42.7871C49.6771 42.7871 49.1221 42.8587 48.7998 43.002C48.4775 43.1452 48.3164 43.3636 48.3164 43.6572C48.3164 43.8434 48.3665 43.9938 48.4668 44.1084C48.5742 44.2158 48.7354 44.2695 48.9502 44.2695C49.1364 44.2695 49.3262 44.2301 49.5195 44.1514C49.7201 44.0654 49.9779 43.9258 50.293 43.7324L50.3359 43.7109L50.5615 44.2803C50.5544 44.2874 50.5436 44.2946 50.5293 44.3018C50.1784 44.5452 49.8633 44.7314 49.584 44.8604C49.3118 44.9821 49.0075 45.043 48.6709 45.043C48.2699 45.043 47.9368 44.9284 47.6719 44.6992C47.4141 44.4629 47.2852 44.1299 47.2852 43.7002C47.2852 43.1488 47.5322 42.7406 48.0264 42.4756C48.5277 42.2106 49.3405 42.0781 50.4648 42.0781V42.7871ZM52.6992 40.8857L52.6777 40.1875H53.5586L53.6768 41.1436V45H52.6992V40.8857ZM53.0752 41.8525C53.2972 41.3011 53.5622 40.8786 53.8701 40.585C54.1781 40.2913 54.554 40.1445 54.998 40.1445C55.1914 40.1445 55.3955 40.166 55.6104 40.209L55.4707 41.0684C55.2559 41.0326 55.0697 41.0146 54.9121 41.0146C54.5755 41.0146 54.2891 41.1042 54.0527 41.2832C53.8236 41.4551 53.6302 41.7415 53.4727 42.1426L53.0752 41.8525ZM58.7041 44.3125C59.0622 43.6751 59.3271 43.0664 59.499 42.4863C59.6781 41.9062 59.807 41.14 59.8857 40.1875H60.9062C60.8203 41.1901 60.6377 42.0674 60.3584 42.8193C60.0791 43.5713 59.6995 44.3053 59.2197 45.0215H58.4678C57.988 44.3053 57.6084 43.5713 57.3291 42.8193C57.0498 42.0674 56.8672 41.1901 56.7812 40.1875H57.8018C57.8805 41.14 58.0059 41.9062 58.1777 42.4863C58.3568 43.0664 58.6253 43.6751 58.9834 44.3125H58.7041ZM64.3867 41.9385C64.3867 41.5661 64.3187 41.3083 64.1826 41.165C64.0465 41.0218 63.8066 40.9502 63.4629 40.9502C63.2552 40.9502 63.0404 40.9753 62.8184 41.0254C62.6035 41.0684 62.3815 41.1292 62.1523 41.208L61.9482 40.4775C62.5212 40.2484 63.0798 40.1338 63.624 40.1338C64.1969 40.1338 64.6302 40.2663 64.9238 40.5312C65.2246 40.7962 65.375 41.2152 65.375 41.7881V44.3125L65.4072 45H64.5371L64.3867 44.2051V41.9385ZM64.9023 42.7871C64.1146 42.7871 63.5596 42.8587 63.2373 43.002C62.915 43.1452 62.7539 43.3636 62.7539 43.6572C62.7539 43.8434 62.804 43.9938 62.9043 44.1084C63.0117 44.2158 63.1729 44.2695 63.3877 44.2695C63.5739 44.2695 63.7637 44.2301 63.957 44.1514C64.1576 44.0654 64.4154 43.9258 64.7305 43.7324L64.7734 43.7109L64.999 44.2803C64.9919 44.2874 64.9811 44.2946 64.9668 44.3018C64.6159 44.5452 64.3008 44.7314 64.0215 44.8604C63.7493 44.9821 63.445 45.043 63.1084 45.043C62.7074 45.043 62.3743 44.9284 62.1094 44.6992C61.8516 44.4629 61.7227 44.1299 61.7227 43.7002C61.7227 43.1488 61.9697 42.7406 62.4639 42.4756C62.9652 42.2106 63.778 42.0781 64.9023 42.0781V42.7871ZM69.0166 45.4834C69.0166 46.0778 68.8698 46.5039 68.5762 46.7617C68.2897 47.0195 67.8779 47.1484 67.3408 47.1484C67.0472 47.1484 66.7464 47.127 66.4385 47.084L66.5029 46.375C66.7751 46.4036 67.0042 46.418 67.1904 46.418C67.5055 46.418 67.724 46.3464 67.8457 46.2031C67.9674 46.0599 68.0283 45.8343 68.0283 45.5264V40.9824L66.8037 40.8965V40.1875H69.0166V45.4834ZM67.8242 38.6621C67.8242 38.4544 67.8887 38.2897 68.0176 38.168C68.1536 38.0391 68.3184 37.9746 68.5117 37.9746C68.7051 37.9746 68.8662 38.0391 68.9951 38.168C69.1312 38.2897 69.1992 38.4544 69.1992 38.6621C69.1992 38.877 69.1312 39.0452 68.9951 39.167C68.8662 39.2887 68.7051 39.3496 68.5117 39.3496C68.3184 39.3496 68.1536 39.2887 68.0176 39.167C67.8887 39.0452 67.8242 38.877 67.8242 38.6621ZM74.0117 41.9385C74.0117 41.5661 73.9437 41.3083 73.8076 41.165C73.6715 41.0218 73.4316 40.9502 73.0879 40.9502C72.8802 40.9502 72.6654 40.9753 72.4434 41.0254C72.2285 41.0684 72.0065 41.1292 71.7773 41.208L71.5732 40.4775C72.1462 40.2484 72.7048 40.1338 73.249 40.1338C73.8219 40.1338 74.2552 40.2663 74.5488 40.5312C74.8496 40.7962 75 41.2152 75 41.7881V44.3125L75.0322 45H74.1621L74.0117 44.2051V41.9385ZM74.5273 42.7871C73.7396 42.7871 73.1846 42.8587 72.8623 43.002C72.54 43.1452 72.3789 43.3636 72.3789 43.6572C72.3789 43.8434 72.429 43.9938 72.5293 44.1084C72.6367 44.2158 72.7979 44.2695 73.0127 44.2695C73.1989 44.2695 73.3887 44.2301 73.582 44.1514C73.7826 44.0654 74.0404 43.9258 74.3555 43.7324L74.3984 43.7109L74.624 44.2803C74.6169 44.2874 74.6061 44.2946 74.5918 44.3018C74.2409 44.5452 73.9258 44.7314 73.6465 44.8604C73.3743 44.9821 73.07 45.043 72.7334 45.043C72.3324 45.043 71.9993 44.9284 71.7344 44.6992C71.4766 44.4629 71.3477 44.1299 71.3477 43.7002C71.3477 43.1488 71.5947 42.7406 72.0889 42.4756C72.5902 42.2106 73.403 42.0781 74.5273 42.0781V42.7871ZM76.2783 40.8857L76.2568 40.1875H77.1377L77.2666 41.0254V45H76.2783V40.8857ZM78.9209 41.8955C78.9209 41.5446 78.8743 41.2939 78.7812 41.1436C78.6953 40.9932 78.527 40.918 78.2764 40.918C78.0615 40.918 77.8395 40.986 77.6104 41.1221C77.3883 41.251 77.1807 41.43 76.9873 41.6592L76.5576 41.2939C76.7796 40.9574 77.0661 40.6816 77.417 40.4668C77.7679 40.252 78.1403 40.1445 78.5342 40.1445C78.9639 40.1445 79.3005 40.2699 79.5439 40.5205C79.7874 40.7712 79.9092 41.2008 79.9092 41.8096V45H78.9209V41.8955ZM82.5518 40.9824L81.2197 40.8965V40.1875H83.54V45H82.5518V40.9824ZM82.3154 38.6621C82.3154 38.4544 82.3799 38.2897 82.5088 38.168C82.6449 38.0391 82.8096 37.9746 83.0029 37.9746C83.1963 37.9746 83.3574 38.0391 83.4863 38.168C83.6224 38.2897 83.6904 38.4544 83.6904 38.6621C83.6904 38.877 83.6224 39.0452 83.4863 39.167C83.3574 39.2887 83.1963 39.3496 83.0029 39.3496C82.8096 39.3496 82.6449 39.2887 82.5088 39.167C82.3799 39.0452 82.3154 38.877 82.3154 38.6621ZM87.6543 42.8301H86.8916V45H85.9033V38.125H86.8916V42.0566H87.6543V42.8301ZM89.835 40.1875L87.7617 42.6152V42.2393L89.9424 45H88.707L86.7734 42.4434L88.6104 40.1875H89.835ZM95.5283 38.125H96.5166V41.5195H98.1709V38.125H99.1592V45H98.1709V42.293H96.5166V45H95.5283V38.125ZM101.802 40.9824L100.47 40.8965V40.1875H102.79V45H101.802V40.9824ZM101.565 38.6621C101.565 38.4544 101.63 38.2897 101.759 38.168C101.895 38.0391 102.06 37.9746 102.253 37.9746C102.446 37.9746 102.607 38.0391 102.736 38.168C102.872 38.2897 102.94 38.4544 102.94 38.6621C102.94 38.877 102.872 39.0452 102.736 39.167C102.607 39.2887 102.446 39.3496 102.253 39.3496C102.06 39.3496 101.895 39.2887 101.759 39.167C101.63 39.0452 101.565 38.877 101.565 38.6621ZM106.937 47.1055C106.722 47.1055 106.489 47.0911 106.238 47.0625C105.995 47.0339 105.758 46.9909 105.529 46.9336L105.647 46.2246C106.056 46.2962 106.45 46.332 106.829 46.332C107.201 46.332 107.456 46.2676 107.592 46.1387C107.728 46.0169 107.796 45.8128 107.796 45.5264V41.1113L107.871 41.0254L108 40.1875H108.795L108.773 40.875V45.3867C108.773 45.9883 108.609 46.4251 108.279 46.6973C107.957 46.9694 107.509 47.1055 106.937 47.1055ZM106.732 45.0859C106.188 45.0859 105.762 44.8711 105.454 44.4414C105.146 44.0117 104.992 43.3958 104.992 42.5938C104.992 42.0566 105.06 41.6019 105.196 41.2295C105.34 40.8571 105.544 40.5778 105.809 40.3916C106.081 40.1982 106.403 40.1016 106.775 40.1016C107.198 40.1016 107.552 40.2197 107.839 40.4561C108.125 40.6924 108.344 41.0755 108.494 41.6055L108.032 41.8096C107.932 41.4945 107.785 41.2617 107.592 41.1113C107.398 40.9538 107.173 40.875 106.915 40.875C106.7 40.875 106.528 40.9287 106.399 41.0361C106.278 41.1364 106.188 41.3118 106.131 41.5625C106.074 41.8132 106.045 42.1569 106.045 42.5938C106.045 43.0306 106.074 43.3743 106.131 43.625C106.188 43.8757 106.278 44.0547 106.399 44.1621C106.528 44.2624 106.7 44.3125 106.915 44.3125C107.173 44.3125 107.395 44.2373 107.581 44.0869C107.774 43.9294 107.925 43.6966 108.032 43.3887L108.44 43.5605C108.283 44.0833 108.064 44.4701 107.785 44.7207C107.506 44.9642 107.155 45.0859 106.732 45.0859ZM109.966 38.125H110.954V45H109.966V38.125ZM112.608 41.8955C112.608 41.5446 112.562 41.2939 112.469 41.1436C112.383 40.9932 112.215 40.918 111.964 40.918C111.749 40.918 111.527 40.986 111.298 41.1221C111.076 41.251 110.868 41.43 110.675 41.6592L110.245 41.2939C110.467 40.9574 110.754 40.6816 111.104 40.4668C111.455 40.252 111.828 40.1445 112.222 40.1445C112.651 40.1445 112.988 40.2699 113.231 40.5205C113.475 40.7712 113.597 41.2008 113.597 41.8096V45H112.608V41.8955ZM114.671 42.5938C114.671 41.8275 114.821 41.2116 115.122 40.7461C115.43 40.2806 115.921 40.0479 116.594 40.0479C117.052 40.0479 117.432 40.1696 117.732 40.4131C118.033 40.6494 118.244 40.9824 118.366 41.4121C118.495 41.8418 118.531 42.3395 118.474 42.9053H115.229V42.1641H117.894L117.464 42.5938C117.5 41.9922 117.442 41.5482 117.292 41.2617C117.149 40.9681 116.916 40.8213 116.594 40.8213C116.279 40.8213 116.049 40.9574 115.906 41.2295C115.77 41.4945 115.702 41.9492 115.702 42.5938C115.702 43.0449 115.738 43.3994 115.81 43.6572C115.888 43.9079 116.014 44.0905 116.186 44.2051C116.357 44.3125 116.594 44.3662 116.895 44.3662C117.074 44.3662 117.263 44.3447 117.464 44.3018C117.664 44.2516 117.883 44.1872 118.119 44.1084L118.291 44.8066C117.775 45.0286 117.274 45.1396 116.787 45.1396C116.028 45.1396 115.484 44.9105 115.154 44.4521C114.832 43.9867 114.671 43.3672 114.671 42.5938ZM120.074 40.8857L120.053 40.1875H120.934L121.052 41.1436V45H120.074V40.8857ZM120.45 41.8525C120.672 41.3011 120.937 40.8786 121.245 40.585C121.553 40.2913 121.929 40.1445 122.373 40.1445C122.566 40.1445 122.771 40.166 122.985 40.209L122.846 41.0684C122.631 41.0326 122.445 41.0146 122.287 41.0146C121.951 41.0146 121.664 41.1042 121.428 41.2832C121.199 41.4551 121.005 41.7415 120.848 42.1426L120.45 41.8525ZM130.73 45.0859C130.465 45.0859 130.186 45.0573 129.893 45C129.606 44.9499 129.341 44.8747 129.098 44.7744L129.334 44.0332C129.563 44.1191 129.778 44.1872 129.979 44.2373C130.186 44.2803 130.408 44.3018 130.645 44.3018C131.081 44.3018 131.389 44.223 131.568 44.0654C131.755 43.9007 131.848 43.6859 131.848 43.4209C131.848 43.2132 131.801 43.0378 131.708 42.8945C131.615 42.7513 131.497 42.6367 131.354 42.5508C131.217 42.4577 131.024 42.3538 130.773 42.2393C130.437 42.0817 130.165 41.9313 129.957 41.7881C129.757 41.6377 129.581 41.4264 129.431 41.1543C129.28 40.875 129.205 40.5169 129.205 40.0801C129.205 39.4499 129.391 38.9521 129.764 38.5869C130.143 38.2217 130.684 38.0391 131.386 38.0391C131.622 38.0391 131.858 38.057 132.095 38.0928C132.331 38.1286 132.546 38.1823 132.739 38.2539L132.546 39.0059C132.159 38.8841 131.798 38.8232 131.461 38.8232C130.988 38.8232 130.666 38.9271 130.494 39.1348C130.322 39.3424 130.236 39.6361 130.236 40.0156C130.236 40.2806 130.29 40.5026 130.397 40.6816C130.505 40.8607 130.637 41.0039 130.795 41.1113C130.96 41.2116 131.178 41.3298 131.45 41.4658C131.758 41.6162 132.005 41.7594 132.191 41.8955C132.385 42.0244 132.546 42.207 132.675 42.4434C132.811 42.6725 132.879 42.9697 132.879 43.335C132.879 43.9294 132.693 44.3698 132.32 44.6562C131.955 44.9427 131.425 45.0859 130.73 45.0859ZM133.921 42.5938C133.921 41.8275 134.071 41.2116 134.372 40.7461C134.68 40.2806 135.171 40.0479 135.844 40.0479C136.302 40.0479 136.682 40.1696 136.982 40.4131C137.283 40.6494 137.494 40.9824 137.616 41.4121C137.745 41.8418 137.781 42.3395 137.724 42.9053H134.479V42.1641H137.144L136.714 42.5938C136.75 41.9922 136.692 41.5482 136.542 41.2617C136.399 40.9681 136.166 40.8213 135.844 40.8213C135.529 40.8213 135.299 40.9574 135.156 41.2295C135.02 41.4945 134.952 41.9492 134.952 42.5938C134.952 43.0449 134.988 43.3994 135.06 43.6572C135.138 43.9079 135.264 44.0905 135.436 44.2051C135.607 44.3125 135.844 44.3662 136.145 44.3662C136.324 44.3662 136.513 44.3447 136.714 44.3018C136.914 44.2516 137.133 44.1872 137.369 44.1084L137.541 44.8066C137.025 45.0286 136.524 45.1396 136.037 45.1396C135.278 45.1396 134.734 44.9105 134.404 44.4521C134.082 43.9867 133.921 43.3672 133.921 42.5938ZM142.042 41.0576C141.698 40.9574 141.351 40.9072 141 40.9072C140.699 40.9072 140.463 40.9609 140.291 41.0684C140.126 41.1758 140.005 41.3512 139.926 41.5947C139.854 41.8311 139.818 42.1641 139.818 42.5938C139.818 43.0234 139.854 43.36 139.926 43.6035C140.005 43.8398 140.126 44.0117 140.291 44.1191C140.463 44.2266 140.699 44.2803 141 44.2803C141.315 44.2803 141.662 44.2301 142.042 44.1299L142.203 44.8496C141.788 45 141.34 45.0752 140.86 45.0752C140.108 45.0752 139.575 44.8532 139.26 44.4092C138.945 43.958 138.787 43.3529 138.787 42.5938C138.787 41.8346 138.945 41.2331 139.26 40.7891C139.575 40.3379 140.108 40.1123 140.86 40.1123C141.34 40.1123 141.788 40.1875 142.203 40.3379L142.042 41.0576ZM145.469 45.1396C144.788 45.1396 144.287 44.9069 143.965 44.4414C143.65 43.9759 143.492 43.36 143.492 42.5938C143.492 41.8275 143.65 41.2116 143.965 40.7461C144.287 40.2806 144.788 40.0479 145.469 40.0479C146.149 40.0479 146.647 40.2806 146.962 40.7461C147.284 41.2116 147.445 41.8275 147.445 42.5938C147.445 43.3529 147.284 43.9688 146.962 44.4414C146.64 44.9069 146.142 45.1396 145.469 45.1396ZM145.469 44.3555C145.805 44.3555 146.045 44.2266 146.188 43.9688C146.332 43.7038 146.403 43.2454 146.403 42.5938C146.403 41.9492 146.332 41.4945 146.188 41.2295C146.045 40.9645 145.805 40.832 145.469 40.832C145.132 40.832 144.892 40.9645 144.749 41.2295C144.606 41.4945 144.534 41.9492 144.534 42.5938C144.534 43.2454 144.606 43.7038 144.749 43.9688C144.892 44.2266 145.132 44.3555 145.469 44.3555ZM148.466 40.8857L148.444 40.1875H149.325L149.454 41.0254V45H148.466V40.8857ZM151.108 41.8955C151.108 41.5446 151.062 41.2939 150.969 41.1436C150.883 40.9932 150.715 40.918 150.464 40.918C150.249 40.918 150.027 40.986 149.798 41.1221C149.576 41.251 149.368 41.43 149.175 41.6592L148.745 41.2939C148.967 40.9574 149.254 40.6816 149.604 40.4668C149.955 40.252 150.328 40.1445 150.722 40.1445C151.151 40.1445 151.488 40.2699 151.731 40.5205C151.975 40.7712 152.097 41.2008 152.097 41.8096V45H151.108V41.8955ZM155.996 44.1621L155.921 44.0762V38.125H156.909V44.3125L156.931 45H156.136L155.996 44.1621ZM154.9 40.1016C155.323 40.1016 155.677 40.2197 155.964 40.4561C156.25 40.6924 156.472 41.0755 156.63 41.6055L156.168 41.7988C156.061 41.4909 155.91 41.2617 155.717 41.1113C155.531 40.9538 155.305 40.875 155.04 40.875C154.832 40.875 154.664 40.9287 154.535 41.0361C154.406 41.1364 154.313 41.3118 154.256 41.5625C154.199 41.8132 154.17 42.1569 154.17 42.5938C154.17 43.0306 154.199 43.3743 154.256 43.625C154.313 43.8685 154.406 44.0439 154.535 44.1514C154.664 44.2516 154.832 44.3018 155.04 44.3018C155.305 44.3018 155.534 44.2266 155.728 44.0762C155.921 43.9258 156.068 43.693 156.168 43.3779L156.576 43.5498C156.419 44.0798 156.2 44.4701 155.921 44.7207C155.642 44.9642 155.291 45.0859 154.868 45.0859C154.324 45.0859 153.894 44.8711 153.579 44.4414C153.271 44.0117 153.117 43.3958 153.117 42.5938C153.117 42.0566 153.185 41.6019 153.321 41.2295C153.465 40.8571 153.669 40.5778 153.934 40.3916C154.199 40.1982 154.521 40.1016 154.9 40.1016ZM160.637 41.9385C160.637 41.5661 160.569 41.3083 160.433 41.165C160.297 41.0218 160.057 40.9502 159.713 40.9502C159.505 40.9502 159.29 40.9753 159.068 41.0254C158.854 41.0684 158.632 41.1292 158.402 41.208L158.198 40.4775C158.771 40.2484 159.33 40.1338 159.874 40.1338C160.447 40.1338 160.88 40.2663 161.174 40.5312C161.475 40.7962 161.625 41.2152 161.625 41.7881V44.3125L161.657 45H160.787L160.637 44.2051V41.9385ZM161.152 42.7871C160.365 42.7871 159.81 42.8587 159.487 43.002C159.165 43.1452 159.004 43.3636 159.004 43.6572C159.004 43.8434 159.054 43.9938 159.154 44.1084C159.262 44.2158 159.423 44.2695 159.638 44.2695C159.824 44.2695 160.014 44.2301 160.207 44.1514C160.408 44.0654 160.665 43.9258 160.98 43.7324L161.023 43.7109L161.249 44.2803C161.242 44.2874 161.231 44.2946 161.217 44.3018C160.866 44.5452 160.551 44.7314 160.271 44.8604C159.999 44.9821 159.695 45.043 159.358 45.043C158.957 45.043 158.624 44.9284 158.359 44.6992C158.102 44.4629 157.973 44.1299 157.973 43.7002C157.973 43.1488 158.22 42.7406 158.714 42.4756C159.215 42.2106 160.028 42.0781 161.152 42.0781V42.7871ZM163.387 40.8857L163.365 40.1875H164.246L164.364 41.1436V45H163.387V40.8857ZM163.763 41.8525C163.985 41.3011 164.25 40.8786 164.558 40.585C164.866 40.2913 165.242 40.1445 165.686 40.1445C165.879 40.1445 166.083 40.166 166.298 40.209L166.158 41.0684C165.943 41.0326 165.757 41.0146 165.6 41.0146C165.263 41.0146 164.977 41.1042 164.74 41.2832C164.511 41.4551 164.318 41.7415 164.16 42.1426L163.763 41.8525ZM171.132 44.6348C170.989 45.3724 170.691 45.9382 170.24 46.332C169.796 46.7331 169.141 47.0016 168.274 47.1377L168.103 46.3965C168.604 46.2962 168.994 46.1566 169.273 45.9775C169.553 45.8057 169.757 45.598 169.886 45.3545C170.015 45.1182 170.111 44.821 170.176 44.4629C170.262 43.9974 170.315 43.4603 170.337 42.8516C170.366 42.2357 170.38 41.3477 170.38 40.1875H171.368C171.368 41.4408 171.347 42.3861 171.304 43.0234C171.268 43.6608 171.211 44.1979 171.132 44.6348ZM168.393 40.1875C168.507 41.362 168.632 42.207 168.769 42.7227C168.905 43.2311 169.102 43.5892 169.359 43.7969C169.624 43.9974 170.047 44.1406 170.627 44.2266L170.509 44.9785C169.707 44.8997 169.105 44.6956 168.704 44.3662C168.31 44.0296 168.031 43.557 167.866 42.9482C167.701 42.3395 167.551 41.4193 167.415 40.1875H168.393ZM178.855 45.0859C178.59 45.0859 178.311 45.0573 178.018 45C177.731 44.9499 177.466 44.8747 177.223 44.7744L177.459 44.0332C177.688 44.1191 177.903 44.1872 178.104 44.2373C178.311 44.2803 178.533 44.3018 178.77 44.3018C179.206 44.3018 179.514 44.223 179.693 44.0654C179.88 43.9007 179.973 43.6859 179.973 43.4209C179.973 43.2132 179.926 43.0378 179.833 42.8945C179.74 42.7513 179.622 42.6367 179.479 42.5508C179.342 42.4577 179.149 42.3538 178.898 42.2393C178.562 42.0817 178.29 41.9313 178.082 41.7881C177.882 41.6377 177.706 41.4264 177.556 41.1543C177.405 40.875 177.33 40.5169 177.33 40.0801C177.33 39.4499 177.516 38.9521 177.889 38.5869C178.268 38.2217 178.809 38.0391 179.511 38.0391C179.747 38.0391 179.983 38.057 180.22 38.0928C180.456 38.1286 180.671 38.1823 180.864 38.2539L180.671 39.0059C180.284 38.8841 179.923 38.8232 179.586 38.8232C179.113 38.8232 178.791 38.9271 178.619 39.1348C178.447 39.3424 178.361 39.6361 178.361 40.0156C178.361 40.2806 178.415 40.5026 178.522 40.6816C178.63 40.8607 178.762 41.0039 178.92 41.1113C179.085 41.2116 179.303 41.3298 179.575 41.4658C179.883 41.6162 180.13 41.7594 180.316 41.8955C180.51 42.0244 180.671 42.207 180.8 42.4434C180.936 42.6725 181.004 42.9697 181.004 43.335C181.004 43.9294 180.818 44.3698 180.445 44.6562C180.08 44.9427 179.55 45.0859 178.855 45.0859ZM185.354 41.0576C185.011 40.9574 184.663 40.9072 184.312 40.9072C184.012 40.9072 183.775 40.9609 183.604 41.0684C183.439 41.1758 183.317 41.3512 183.238 41.5947C183.167 41.8311 183.131 42.1641 183.131 42.5938C183.131 43.0234 183.167 43.36 183.238 43.6035C183.317 43.8398 183.439 44.0117 183.604 44.1191C183.775 44.2266 184.012 44.2803 184.312 44.2803C184.628 44.2803 184.975 44.2301 185.354 44.1299L185.516 44.8496C185.1 45 184.653 45.0752 184.173 45.0752C183.421 45.0752 182.887 44.8532 182.572 44.4092C182.257 43.958 182.1 43.3529 182.1 42.5938C182.1 41.8346 182.257 41.2331 182.572 40.7891C182.887 40.3379 183.421 40.1123 184.173 40.1123C184.653 40.1123 185.1 40.1875 185.516 40.3379L185.354 41.0576ZM186.966 38.125H187.954V45H186.966V38.125ZM189.608 41.8955C189.608 41.5446 189.562 41.2939 189.469 41.1436C189.383 40.9932 189.215 40.918 188.964 40.918C188.749 40.918 188.527 40.986 188.298 41.1221C188.076 41.251 187.868 41.43 187.675 41.6592L187.245 41.2939C187.467 40.9574 187.754 40.6816 188.104 40.4668C188.455 40.252 188.828 40.1445 189.222 40.1445C189.651 40.1445 189.988 40.2699 190.231 40.5205C190.475 40.7712 190.597 41.2008 190.597 41.8096V45H189.608V41.8955ZM193.594 45.1396C192.913 45.1396 192.412 44.9069 192.09 44.4414C191.775 43.9759 191.617 43.36 191.617 42.5938C191.617 41.8275 191.775 41.2116 192.09 40.7461C192.412 40.2806 192.913 40.0479 193.594 40.0479C194.274 40.0479 194.772 40.2806 195.087 40.7461C195.409 41.2116 195.57 41.8275 195.57 42.5938C195.57 43.3529 195.409 43.9688 195.087 44.4414C194.765 44.9069 194.267 45.1396 193.594 45.1396ZM193.594 44.3555C193.93 44.3555 194.17 44.2266 194.313 43.9688C194.457 43.7038 194.528 43.2454 194.528 42.5938C194.528 41.9492 194.457 41.4945 194.313 41.2295C194.17 40.9645 193.93 40.832 193.594 40.832C193.257 40.832 193.017 40.9645 192.874 41.2295C192.731 41.4945 192.659 41.9492 192.659 42.5938C192.659 43.2454 192.731 43.7038 192.874 43.9688C193.017 44.2266 193.257 44.3555 193.594 44.3555ZM198.406 45.1396C197.726 45.1396 197.225 44.9069 196.902 44.4414C196.587 43.9759 196.43 43.36 196.43 42.5938C196.43 41.8275 196.587 41.2116 196.902 40.7461C197.225 40.2806 197.726 40.0479 198.406 40.0479C199.087 40.0479 199.584 40.2806 199.899 40.7461C200.222 41.2116 200.383 41.8275 200.383 42.5938C200.383 43.3529 200.222 43.9688 199.899 44.4414C199.577 44.9069 199.079 45.1396 198.406 45.1396ZM198.406 44.3555C198.743 44.3555 198.983 44.2266 199.126 43.9688C199.269 43.7038 199.341 43.2454 199.341 42.5938C199.341 41.9492 199.269 41.4945 199.126 41.2295C198.983 40.9645 198.743 40.832 198.406 40.832C198.07 40.832 197.83 40.9645 197.687 41.2295C197.543 41.4945 197.472 41.9492 197.472 42.5938C197.472 43.2454 197.543 43.7038 197.687 43.9688C197.83 44.2266 198.07 44.3555 198.406 44.3555ZM203.348 38.125V43.625C203.348 43.8327 203.401 43.9938 203.509 44.1084C203.616 44.2158 203.788 44.2695 204.024 44.2695C204.189 44.2695 204.379 44.2588 204.594 44.2373L204.658 45C204.422 45.0286 204.182 45.043 203.938 45.043C203.459 45.043 203.076 44.932 202.789 44.71C202.503 44.4808 202.359 44.1084 202.359 43.5928V38.8984L201.554 38.834V38.125H203.348Z" fill="black"/>
</svg>
